<svg width="630" height="657" viewBox="0 0 630 657" fill="none" xmlns="http://www.w3.org/2000/svg">
<path d="M203.5 143C208.163 143 211.984 139.571 212.632 134.718C219.043 91.4941 224.937 85.4765 266.516 80.7532C271.308 80.1708 275 76.1593 275 71.5003C275 66.7764 271.373 62.8942 266.581 62.1824C225.261 56.4236 220.145 51.3765 212.632 8.218C211.79 3.42969 208.098 0 203.5 0C198.772 0 195.016 3.42969 194.239 8.28236C187.957 51.4415 182.063 57.4591 140.549 62.1824C135.627 62.8299 132 66.712 132 71.5003C132 76.1593 135.497 80.0414 140.419 80.7532C181.804 86.6414 186.855 91.6235 194.239 134.783C195.21 139.635 198.966 143 203.5 143Z" fill="black"/>
<path d="M33.6 656.4L4.20001 607.4L171.5 505.2V262.3H0.700012V204.2H231.7V536L33.6 656.4Z" fill="black"/>
<path d="M471.663 540.9C376.463 540.9 298.063 463.9 298.063 370.1C298.063 275.6 376.463 198.6 471.663 198.6C539.563 198.6 600.463 237.8 629.163 298.7L575.263 321.8C556.363 281.9 514.363 253.2 471.663 253.2C409.363 253.2 357.563 307.1 357.563 370.1C357.563 433.1 409.363 485.6 471.663 485.6C514.363 485.6 556.363 457.6 575.263 417.7L629.163 440.8C600.463 501.7 539.563 540.9 471.663 540.9Z" fill="black"/>
</svg>
