<svg width="972" height="214" viewBox="0 0 972 214" fill="none" xmlns="http://www.w3.org/2000/svg">
<g filter="url(#filter0_d_0_1)">
<path d="M62.968 157.792C72.2693 157.792 79.3093 160.224 84.088 165.088C88.952 169.867 92.1093 175.584 93.56 182.24C95.0107 188.811 95.736 196.064 95.736 204L66.296 203.872C66.296 192.608 64.4187 183.349 60.664 176.096C56.9093 168.757 49.9547 165.088 39.8 165.088H32.76V204H4.6V109.28H32.76V145.632H37.624C44.6213 145.632 49.9973 143.968 53.752 140.64C57.5067 137.227 59.9813 132.917 61.176 127.712C62.3707 122.421 62.968 116.277 62.968 109.28H92.408C92.408 123.445 90.232 134.453 85.88 142.304C81.528 150.069 73.8907 153.952 62.968 153.952H57.976V157.792H62.968ZM176.321 187.488C173.505 193.035 168.982 197.387 162.753 200.544C156.609 203.701 149.526 205.28 141.505 205.28C133.91 205.28 127.126 203.829 121.153 200.928C115.265 197.941 110.657 193.845 107.329 188.64C104.086 183.435 102.465 177.589 102.465 171.104C102.465 165.131 104.044 159.413 107.201 153.952C110.358 148.405 114.796 143.968 120.513 140.64C126.23 137.227 132.758 135.52 140.097 135.52C147.436 135.52 153.921 137.099 159.553 140.256C165.185 143.413 169.452 147.808 172.353 153.44C175.34 159.072 176.62 165.515 176.193 172.768H129.857C129.857 177.205 131.137 180.491 133.697 182.624C136.257 184.757 139.542 185.824 143.553 185.824C146.284 185.824 148.801 185.184 151.105 183.904C153.409 182.539 155.073 180.832 156.097 178.784L176.321 187.488ZM153.793 165.728C153.793 163.339 152.769 161.077 150.721 158.944C148.673 156.811 145.772 155.744 142.017 155.744C138.092 155.744 135.148 156.811 133.185 158.944C131.222 160.992 130.241 163.253 130.241 165.728H153.793ZM212.667 156C212.667 157.195 213.563 158.261 215.355 159.2C217.232 160.053 220.176 161.12 224.187 162.4C229.307 163.936 233.616 165.472 237.115 167.008C240.614 168.544 243.643 170.72 246.203 173.536C248.763 176.352 250.043 179.851 250.043 184.032C250.043 190.859 247.27 196.107 241.723 199.776C236.176 203.445 228.624 205.28 219.067 205.28C212.496 205.28 205.926 204.171 199.355 201.952C192.784 199.733 187.238 197.088 182.715 194.016L193.083 178.528C197.35 181.173 201.83 183.264 206.523 184.8C211.216 186.336 215.142 187.104 218.299 187.104C219.92 187.104 221.158 186.891 222.011 186.464C222.95 186.037 223.419 185.397 223.419 184.544C223.419 183.008 222.395 181.728 220.347 180.704C218.384 179.68 215.184 178.485 210.747 177.12C205.883 175.584 201.872 174.133 198.715 172.768C195.558 171.317 192.827 169.355 190.523 166.88C188.219 164.405 187.067 161.333 187.067 157.664C187.067 150.837 189.798 145.461 195.259 141.536C200.72 137.525 207.846 135.52 216.635 135.52C222.95 135.52 228.838 136.373 234.299 138.08C239.846 139.787 244.454 141.877 248.123 144.352L241.339 161.376C238.267 159.072 234.427 157.152 229.819 155.616C225.211 154.08 221.243 153.312 217.915 153.312C214.416 153.312 212.667 154.208 212.667 156ZM289.188 108V139.36C289.188 139.957 288.889 140.768 288.292 141.792C287.78 142.731 287.14 143.755 286.372 144.864C284.153 148.021 282.361 151.179 280.996 154.336C279.631 157.408 278.948 161.077 278.948 165.344H282.02C282.02 161.589 283.129 157.365 285.348 152.672C287.567 147.893 290.852 143.84 295.204 140.512C299.556 137.184 304.719 135.52 310.692 135.52C327.332 135.52 335.652 146.485 335.652 168.416V204H308.132V175.072C308.132 168.928 307.407 164.491 305.956 161.76C304.591 159.029 302.244 157.664 298.916 157.664C295.673 157.664 293.241 158.987 291.62 161.632C289.999 164.277 289.188 168.459 289.188 174.176V204H261.668V108H289.188ZM406.518 162.784C402.081 161.248 397.302 160.48 392.182 160.48C386.465 160.48 382.411 161.803 380.022 164.448C377.633 167.093 376.438 171.403 376.438 177.376V204H348.918V137.44H372.214C374.859 137.44 376.182 138.08 376.182 139.36C376.182 139.957 375.926 140.768 375.414 141.792C374.902 142.816 374.262 143.883 373.494 144.992C371.275 148.405 369.441 151.861 367.99 155.36C366.539 158.859 365.814 163.04 365.814 167.904H368.886C368.886 163.552 369.91 158.901 371.958 153.952C374.006 149.003 377.035 144.821 381.046 141.408C385.142 137.909 390.091 136.16 395.894 136.16C400.673 136.16 404.214 136.373 406.518 136.8V162.784ZM447.715 204H420.195V137.44H447.715V204ZM418.659 118.112C418.659 114.613 420.11 111.669 423.011 109.28C425.998 106.891 429.624 105.696 433.891 105.696C438.158 105.696 441.742 106.933 444.643 109.408C447.63 111.797 449.123 114.699 449.123 118.112C449.123 121.525 447.63 124.469 444.643 126.944C441.742 129.333 438.158 130.528 433.891 130.528C429.624 130.528 425.998 129.333 423.011 126.944C420.11 124.555 418.659 121.611 418.659 118.112ZM538.307 204C529.688 192.907 523.886 184.587 520.899 179.04C517.912 173.408 516.419 169.013 516.419 165.856C516.419 164.405 516.547 163.125 516.803 162.016H511.683C511.939 163.296 512.067 164.576 512.067 165.856C512.067 168.928 510.659 173.237 507.843 178.784C505.112 184.331 499.736 192.736 491.715 204H457.795L491.075 156.896L460.099 109.28H492.867C500.376 121.653 505.454 130.912 508.099 137.056C510.83 143.2 512.195 147.765 512.195 150.752C512.195 151.52 512.11 152.416 511.939 153.44H517.059C516.718 152.245 516.547 151.136 516.547 150.112C516.547 147.211 517.87 142.731 520.515 136.672C523.246 130.528 528.28 121.397 535.619 109.28H568.003L537.539 157.408L572.483 204H538.307ZM662.228 181.984V204H582.1V109.28H610.26V181.984H662.228ZM697.021 205.28C690.109 205.28 684.434 203.573 679.997 200.16C675.645 196.661 672.488 192.267 670.525 186.976C668.648 181.6 667.709 175.925 667.709 169.952C667.709 163.381 668.861 157.493 671.165 152.288C673.469 146.997 676.712 142.901 680.893 140C685.074 137.013 689.81 135.52 695.101 135.52C701.074 135.52 705.725 137.184 709.053 140.512C712.381 143.755 714.045 147.68 714.045 152.288C714.045 155.872 713.32 158.688 711.869 160.736C710.418 162.699 708.669 163.851 706.621 164.192C706.962 163.253 707.133 162.229 707.133 161.12C707.133 159.584 706.706 158.133 705.853 156.768C705.085 155.403 703.933 154.72 702.397 154.72C700.264 154.72 698.514 155.957 697.149 158.432C695.869 160.907 695.229 163.765 695.229 167.008C695.229 171.957 696.21 175.883 698.173 178.784C700.136 181.685 702.781 183.136 706.109 183.136C709.693 183.136 712.68 181.216 715.069 177.376C717.544 173.536 718.781 168.331 718.781 161.76V137.44H746.301V204H722.493C720.872 204 719.848 203.829 719.421 203.488C718.994 203.061 718.781 202.379 718.781 201.44C718.781 200.843 718.994 200.16 719.421 199.392C719.848 198.539 720.274 197.813 720.701 197.216C721.128 196.619 721.426 196.192 721.597 195.936C723.901 192.693 725.693 189.579 726.973 186.592C728.338 183.52 729.021 179.808 729.021 175.456H725.949C725.949 179.04 724.882 183.179 722.749 187.872C720.616 192.565 717.373 196.661 713.021 200.16C708.669 203.573 703.336 205.28 697.021 205.28ZM810.692 135.52C817.604 135.52 823.236 137.269 827.588 140.768C832.025 144.181 835.225 148.533 837.188 153.824C839.236 159.029 840.26 164.405 840.26 169.952C840.26 177.12 839.108 183.392 836.804 188.768C834.585 194.059 831.471 198.155 827.46 201.056C823.535 203.872 819.097 205.28 814.148 205.28C810.052 205.28 806.468 204.512 803.396 202.976C800.324 201.44 797.977 199.435 796.356 196.96C794.735 194.485 793.924 191.925 793.924 189.28C793.924 185.355 794.607 182.368 795.972 180.32C797.423 178.187 799.215 176.949 801.348 176.608C801.007 177.547 800.836 178.571 800.836 179.68C800.836 181.216 801.22 182.667 801.988 184.032C802.841 185.397 804.036 186.08 805.572 186.08C807.705 186.08 809.412 184.757 810.692 182.112C812.057 179.467 812.74 176.224 812.74 172.384C812.74 167.605 811.716 163.979 809.668 161.504C807.705 158.944 805.103 157.664 801.86 157.664C798.105 157.664 795.033 159.328 792.644 162.656C790.34 165.899 789.188 170.72 789.188 177.12V204H761.668V108H788.548V139.488C788.548 140.171 788.292 141.024 787.78 142.048C787.268 142.987 786.628 143.968 785.86 144.992C783.812 148.149 782.148 151.264 780.868 154.336C779.588 157.323 778.948 160.992 778.948 165.344H782.02C782.02 161.504 783.129 157.237 785.348 152.544C787.652 147.851 790.937 143.84 795.204 140.512C799.556 137.184 804.719 135.52 810.692 135.52ZM875.792 156C875.792 157.195 876.688 158.261 878.48 159.2C880.357 160.053 883.301 161.12 887.312 162.4C892.432 163.936 896.741 165.472 900.24 167.008C903.739 168.544 906.768 170.72 909.328 173.536C911.888 176.352 913.168 179.851 913.168 184.032C913.168 190.859 910.395 196.107 904.848 199.776C899.301 203.445 891.749 205.28 882.192 205.28C875.621 205.28 869.051 204.171 862.48 201.952C855.909 199.733 850.363 197.088 845.84 194.016L856.208 178.528C860.475 181.173 864.955 183.264 869.648 184.8C874.341 186.336 878.267 187.104 881.424 187.104C883.045 187.104 884.283 186.891 885.136 186.464C886.075 186.037 886.544 185.397 886.544 184.544C886.544 183.008 885.52 181.728 883.472 180.704C881.509 179.68 878.309 178.485 873.872 177.12C869.008 175.584 864.997 174.133 861.84 172.768C858.683 171.317 855.952 169.355 853.648 166.88C851.344 164.405 850.192 161.333 850.192 157.664C850.192 150.837 852.923 145.461 858.384 141.536C863.845 137.525 870.971 135.52 879.76 135.52C886.075 135.52 891.963 136.373 897.424 138.08C902.971 139.787 907.579 141.877 911.248 144.352L904.464 161.376C901.392 159.072 897.552 157.152 892.944 155.616C888.336 154.08 884.368 153.312 881.04 153.312C877.541 153.312 875.792 154.208 875.792 156Z" fill="white"/>
</g>
<g clip-path="url(#clip0_0_1)">
<path fill-rule="evenodd" clip-rule="evenodd" d="M919.072 0H910.929V36.0543L897.422 2.62532L889.872 5.67569L903.729 39.9706L877.574 13.8159L871.816 19.5739L896.884 44.6419L864.398 30.4483L861.138 37.9101L895.512 52.9285H858V61.0715H895.512L861.138 76.0899L864.398 83.5517L896.884 69.3582L871.816 94.4262L877.574 100.184L903.729 74.0293L889.872 108.325L897.422 111.375L910.929 77.9458V114H919.072V77.9458L932.578 111.375L940.127 108.325L926.272 74.0293L952.426 100.184L958.184 94.4262L933.116 69.3582L965.602 83.5517L968.862 76.0899L934.488 61.0715H972V52.9285H934.488L968.862 37.9101L965.602 30.4483L933.116 44.6419L958.184 19.5738L952.426 13.8159L926.272 39.9706L940.127 5.67569L932.578 2.62532L919.072 36.0543V0Z" fill="white"/>
</g>
<defs>
<filter id="filter0_d_0_1" x="0.600006" y="105.696" width="916.568" height="107.584" filterUnits="userSpaceOnUse" color-interpolation-filters="sRGB">
<feFlood flood-opacity="0" result="BackgroundImageFix"/>
<feColorMatrix in="SourceAlpha" type="matrix" values="0 0 0 0 0 0 0 0 0 0 0 0 0 0 0 0 0 0 127 0" result="hardAlpha"/>
<feOffset dy="4"/>
<feGaussianBlur stdDeviation="2"/>
<feComposite in2="hardAlpha" operator="out"/>
<feColorMatrix type="matrix" values="0 0 0 0 0 0 0 0 0 0 0 0 0 0 0 0 0 0 0.25 0"/>
<feBlend mode="normal" in2="BackgroundImageFix" result="effect1_dropShadow_0_1"/>
<feBlend mode="normal" in="SourceGraphic" in2="effect1_dropShadow_0_1" result="shape"/>
</filter>
<clipPath id="clip0_0_1">
<rect width="114" height="114" fill="white" transform="translate(858)"/>
</clipPath>
</defs>
</svg>
